<?xml version="1.0" standalone="no"?><!DOCTYPE svg PUBLIC "-//W3C//DTD SVG 1.1//EN" "http://www.w3.org/Graphics/SVG/1.1/DTD/svg11.dtd"><svg t="1514275870923" class="icon" style="" viewBox="0 0 1024 1024" version="1.1" xmlns="http://www.w3.org/2000/svg" p-id="5169" xmlns:xlink="http://www.w3.org/1999/xlink" width="200" height="200"><defs><style type="text/css"></style></defs><path d="M993.235267 914.540135v54.205489c-13.339804 29.625703-37.729255 45.438835-67.756094 54.207535H98.842145c-63.460259-22.053246-70.228398-31.602728-67.622041-100.617487 1.528818-40.546414 4.379745-81.048825 6.640226-121.571703 10.107183-181.231407 19.645409-362.493514 30.669474-543.671709 3.401466-55.879616 26.464714-75.247709 82.288048-75.406321 53.901567-0.151449 107.802111-0.032746 162.038299-0.032746 8.466826-61.338948 33.786461-109.695225 81.655645-142.825748 23.436754-16.224501 38.603158-25.934642 71.633396-34.404537 26.680631-5.505381 56.200933-5.65376 83.585598-1.638311 36.419425 8.466826 88.159772 35.238531 119.489277 79.575266 20.349443 28.799896 30.281641 64.117221 46.443721 99.30561 51.700438 0 106.899556-0.369413 162.090487 0.112563 46.251339 0.410345 72.08672 24.183767 74.636796 69.265469 9.401103 166.488652 17.970259 333.02847 27.638445 499.508935 3.179409 54.737607 8.738001 109.326835 13.205751 163.987695zM698.529569 236.030597c11.516274 23.45108 17.352183 41.204399 27.873805 55.516342 21.090316 28.696542 20.436424 62.490166-4.666271 85.411175-23.980129 21.894634-59.124516 21.485312-82.783327-0.979303-24.403777-23.159439-24.333169-57.799336-3.074009-85.57695 10.603486-13.862713 16.132403-31.609891 26.00218-51.777186H359.064511c9.806332 20.784348 14.379482 37.472405 24.251305 49.96389 21.660297 27.420481 23.11646 62.741899 0.367366 86.052786-23.285305 23.854263-60.955208 24.575693-85.381498 1.620916-23.811284-22.371494-23.770352-57.567046-3.182479-85.847103 10.007923-13.744009 14.695683-31.363275 24.161254-52.531362H126.236019c-2.074239 12.215192-5.012148 23.046875-5.610781 34.010565-11.963459 218.503245-23.054038 437.059702-36.095037 655.497455-1.847066 30.94679 7.380076 38.799632 36.878889 38.510037 127.58055-1.264805 255.177473-0.535189 382.771325-0.535188 133.23431 0 266.472713-0.033769 399.711116 0.014326 19.177759 0.00614 35.688785 0.463557 33.60022-28.162377-6.308675-86.620721-10.508319-173.402101-15.44065-260.123105-7.748465-136.261246-15.012908-272.563424-23.888031-408.752016-0.7245-11.129465-11.803823-30.570213-18.762297-30.881298-56.112929-2.550076-112.39675-1.431604-180.871204-1.431604zM371.83331 179.205448h277.42003c-6.927775-72.191097-68.961547-126.198065-141.088175-125.092896-70.788146 1.084703-131.895827 56.500762-136.331855 125.092896z" fill="" p-id="5170"></path><path d="M506.563692 527.179287c37.499011-24.55932 60.937812-39.574274 92.30825-40.097183 79.716482-1.336436 135.167333 86.071206 108.94412 168.823834-7.873309 24.840729-22.831981 49.494193-40.511622 68.756886-41.140954 44.801316-86.388431 85.808217-129.010107 129.294586-20.036312 20.440517-37.072293 20.789464-57.467785 0.515745-45.570841-45.299665-92.78818-88.937483-138.230085-134.356875-31.876974-31.866741-47.78118-71.581207-43.034068-116.654723 5.138014-48.793229 27.291544-88.581373 74.456695-108.855091 49.647688-21.338979 101.898664 3.332904 132.544602 32.572821z m-0.285502 293.06534c48.75639-52.36661 89.91781-91.340204 124.183177-135.648287 16.365717-21.159901 25.15079-51.99515 27.373409-79.264181 2.40886-29.575561-16.37288-53.43801-46.520468-63.222852-30.546677-9.905592-51.919425 6.617713-70.246818 28.126561-33.57566 39.405429-35.827954 39.311285-69.177464 0.020466-18.249621-21.503731-39.927314-37.576783-70.407477-28.298477-30.80148 9.369381-47.690106 34.42091-46.628938 63.296531 0.923021 25.102695 9.305936 54.218792 24.509178 73.652376 36.589293 46.768108 79.101476 88.904738 126.915401 141.337863z" fill="" p-id="5171"></path></svg>