<?xml version="1.0" standalone="no"?><!DOCTYPE svg PUBLIC "-//W3C//DTD SVG 1.1//EN" "http://www.w3.org/Graphics/SVG/1.1/DTD/svg11.dtd"><svg t="1514276128615" class="icon" style="" viewBox="0 0 1024 1024" version="1.1" xmlns="http://www.w3.org/2000/svg" p-id="14876" xmlns:xlink="http://www.w3.org/1999/xlink" width="200" height="200"><defs><style type="text/css"></style></defs><path d="M704 480l-160 0 0-160c0-17.664-14.304-32-32-32-17.664 0-32 14.336-32 32l0 160-160 0c-17.664 0-32 14.336-32 32 0 17.696 14.336 32 32 32l160 0 0 160c0 17.696 14.336 32 32 32 17.696 0 32-14.304 32-32l0-160 160 0c17.696 0 32-14.304 32-32C736 494.336 721.696 480 704 480zM896 0 128 0C57.312 0 0 57.312 0 128l0 768c0 70.688 57.312 128 128 128l768 0c70.688 0 128-57.312 128-128L1024 128C1024 57.312 966.688 0 896 0zM960 896c0 35.328-28.672 64-64 64L128 960c-35.328 0-64-28.672-64-64L64 128c0-35.328 28.672-64 64-64l768 0c35.328 0 64 28.672 64 64L960 896z" p-id="14877"></path></svg>