<?xml version="1.0" standalone="no"?><!DOCTYPE svg PUBLIC "-//W3C//DTD SVG 1.1//EN" "http://www.w3.org/Graphics/SVG/1.1/DTD/svg11.dtd"><svg t="1504523490715" class="icon" style="" viewBox="0 0 1024 1024" version="1.1" xmlns="http://www.w3.org/2000/svg" p-id="1668" xmlns:xlink="http://www.w3.org/1999/xlink" width="200" height="200"><defs><style type="text/css"></style></defs><path d="M512.000512 20.836561c-271.230378 0-491.164462 219.935108-491.164462 491.164462 0 271.229354 219.934085 491.162416 491.164462 491.162416 271.229354 0 491.162416-219.933061 491.162416-491.162416C1003.162928 240.771669 783.229866 20.836561 512.000512 20.836561zM617.915773 732.714867c-7.476275 7.213285-16.755616 11.342326-27.331485 11.342326L397.203976 744.057193c-21.403472 0-39.443337-7.731078-54.66604-22.686698-15.47239-15.474436-22.685675-33.780361-22.685675-54.665017L319.85226 357.296569c0-21.403472 7.213285-39.444361 22.685675-54.917774 15.222703-14.70491 33.262568-22.435988 54.66604-22.435988l193.380312 0c10.57587 0 19.854187 4.130064 27.331485 11.343349 7.216355 7.478322 11.345396 16.757662 11.345396 27.332509 0 10.828626-4.130064 20.10592-11.345396 27.333532-7.476275 7.730055-16.755616 11.344373-27.331485 11.344373L435.879833 357.296569c-10.576893 0-19.85521 5.161556-27.332509 14.95562-7.731078 10.060123-11.343349 22.169929-11.343349 35.842323l0 0.768503 0 221.228567c0 10.0591 3.612271 18.557658 11.343349 25.784246 7.226588 7.214309 16.504906 10.827603 26.816762 10.827603l0.515746 0 154.704454 0c10.57587 0 19.854187 3.612271 27.331485 11.343349 7.216355 7.226588 11.345396 16.504906 11.345396 27.331485C629.260146 715.957205 625.130082 725.235522 617.915773 732.714867zM779.835559 537.016767l-77.351716 96.689133c-3.865028 4.89652-9.279341 7.214309-15.2094 7.214309-2.316765 0-4.381797 0-5.930059-0.768503-4.130064-1.549286-7.479345-4.129041-9.79611-7.227612-2.328022-3.348258-3.611248-7.213285-3.611248-11.341303l0-58.014298L513.232572 563.568493c-10.828626 0-20.10592-3.613294-27.333532-11.344373-7.731078-7.227612-11.342326-16.503882-11.342326-27.332509 0-10.574846 3.612271-19.85214 11.342326-27.331485 7.226588-7.214309 16.504906-11.344373 27.333532-11.344373l154.704454 0L667.937027 428.202479c0-4.130064 1.283226-7.731078 3.611248-10.827603 2.316765-3.349281 5.666046-6.195096 9.79611-7.742335 1.548262-0.25071 3.611248-0.76748 5.930059-0.76748 5.930059 0 11.343349 2.316765 15.208377 7.214309l77.352739 96.690156c2.580778 3.612271 4.130064 7.742335 4.130064 12.123109C783.9646 529.790178 782.417361 533.655206 779.835559 537.016767z" p-id="1669"></path></svg>