<?xml version="1.0" standalone="no"?><!DOCTYPE svg PUBLIC "-//W3C//DTD SVG 1.1//EN" "http://www.w3.org/Graphics/SVG/1.1/DTD/svg11.dtd"><svg t="1514275832554" class="icon" style="" viewBox="0 0 1024 1024" version="1.1" xmlns="http://www.w3.org/2000/svg" p-id="5059" xmlns:xlink="http://www.w3.org/1999/xlink" width="200" height="200"><defs><style type="text/css"></style></defs><path d="M738.015607 76.074968 738.015607 76.074968c8.671419 0 24.692156 1.393731 34.909777 10.773271 2.324931 2.110038 9.39796 8.598765 9.39796 24.586757 0 17.972165-9.904492 46.260187-37.685982 71.747446-34.020532 31.195209-90.118696 54.763785-130.484693 54.763785-11.669679 0-17.146364-2.119248-18.067332-2.119248-0.072654 0-0.125866 0.032746-0.125866 0.032746-7.473138-14.963672 8.874032-79.944054 55.883272-123.097512C676.868495 89.797381 709.098257 76.074968 738.015607 76.074968M738.015607 0.00921c-46.592759 0-97.971478 19.62479-138.870612 57.091786-70.287201 64.548551-111.291735 183.483291-56.595487 233.646333 17.586382 16.180372 42.951868 23.221679 71.601114 23.221679 60.416478 0 135.436427-31.381449 183.173232-75.127395 70.258548-64.475897 82.964827-157.489501 28.2563-207.658682C802.694117 10.189991 771.596121-0.021489 738.015607 0.00921L738.015607 0.00921 738.015607 0.00921 738.015607 0.00921zM343.208184 76.074968c28.913257 0 61.155298 13.722413 86.230168 36.686221 47.356138 43.471703 63.563116 109.069134 57.002759 122.046586-0.072654 0.032746-5.101136 3.138452-19.33929 3.138452-40.382369 0-96.41095-23.564483-130.405899-54.763785-27.814236-25.487258-37.714634-53.805979-37.714634-71.743352 0-15.992085 7.03005-22.480812 9.365214-24.59085C318.598915 77.468699 334.595093 76.074968 343.208184 76.074968M343.208184 0.00921c-33.562095 0-64.622229 10.188968-87.551244 31.172696-54.64406 50.171228-41.935734 143.178692 28.35556 207.666869 47.672337 43.738783 122.69331 75.127395 183.090345 75.127395 28.663572 0 54.029058-7.04847 71.629766-23.221679 54.722853-50.171228 13.677388-169.105968-56.60572-233.646333C441.227757 19.633999 389.829595 0.00921 343.208184 0.00921L343.208184 0.00921 343.208184 0.00921 343.208184 0.00921zM938.180686 351.25795c0-41.014767-15.162192-67.327826-56.79196-67.327826L540.649246 283.930124l0 340.743573 397.53144 0L938.180686 351.25795 938.180686 351.25795zM540.649246 681.464634l0 340.743573 340.741527 0c41.629768 0 56.79196-15.752634 56.79196-56.787867L938.182732 681.464634 540.649246 681.464634 540.649246 681.464634zM483.857286 624.676767 483.857286 283.933194l-321.818719-7.215267c-41.671724 0-75.712721 33.526279-75.712721 74.541046l0 273.415747 397.53144 0L483.857286 624.676767zM86.325846 686.73052l0 260.909012c0 41.037279 34.043044 74.569699 75.712721 74.569699l321.818719 0L483.857286 681.464634 86.325846 686.73052 86.325846 686.73052 86.325846 686.73052z" p-id="5060"></path></svg>