<?xml version="1.0" standalone="no"?><!DOCTYPE svg PUBLIC "-//W3C//DTD SVG 1.1//EN" "http://www.w3.org/Graphics/SVG/1.1/DTD/svg11.dtd"><svg t="1514275940430" class="icon" style="" viewBox="0 0 1179 1024" version="1.1" xmlns="http://www.w3.org/2000/svg" p-id="8772" xmlns:xlink="http://www.w3.org/1999/xlink" width="230.2734375" height="200"><defs><style type="text/css"></style></defs><path d="M326.645136 328.095673C186.683918 469.235145 326.645136 839.187837 326.645136 839.187837 326.645136 839.187837 693.545954 980.288678 833.526488 839.187837 973.487706 698.048365 1158.937285 0 1158.937285 0 1158.937285 0 466.606354 186.975516 326.645136 328.095673Z" p-id="8773"></path><path d="M361.41331 643.867959C352.334954 643.867959 344.241695 637.435847 342.464655 628.222281 323.805735 531.431546 316.27263 401.263364 386.330502 330.626023 393.805659 323.054288 406.051783 323.015656 413.642834 330.529445 421.21457 338.043234 421.272517 350.270042 413.758728 357.841778 355.560667 416.503414 363.499401 533.266533 380.400597 620.901649 382.409424 631.370732 375.552368 641.492134 365.083284 643.520278 363.847082 643.752065 362.610881 643.867959 361.41331 643.867959Z" p-id="8774"></path><path d="M1046.2884 32.083299C984.922572 241.812653 859.757144 635.967858 758.3886 738.166975 649.718739 847.744671 326.645136 839.187837 326.645136 839.187837 326.645136 839.187837 693.545954 980.307994 833.526488 839.187837 973.487706 698.048365 1158.937285 0 1158.937285 0 1158.937285 0 1114.646494 11.975705 1046.2884 32.083299Z" p-id="8775"></path><path d="M112.685653 1017.896254C79.269575 1017.896254 45.254711 1009.609839 10.930796 993.07564 1.330917 988.420568-2.706055 976.869808 1.910386 967.269929 6.546143 957.650734 18.096903 953.633078 27.716098 958.268835 76.082492 981.582827 123.232 985.407326 167.928419 969.645754 266.612088 934.838948 323.38079 817.206625 323.96026 816.009054 323.96026 816.009054 325.350987 813.536651 325.350987 813.536651 525.886091 514.08609 764.106033 273.953899 1033.346913 99.823292 1042.309375 94.047912 1054.265764 96.597578 1060.06046 105.560041 1065.855156 114.522503 1063.286174 126.478892 1054.323711 132.273588 789.853798 303.294375 555.632196 539.389595 358.206912 833.93398 350.88628 848.787716 289.597714 967.694873 180.773328 1006.09439 158.444434 1013.955861 135.709911 1017.896254 112.685653 1017.896254Z" p-id="8776"></path></svg>