<?xml version="1.0" standalone="no"?><!DOCTYPE svg PUBLIC "-//W3C//DTD SVG 1.1//EN" "http://www.w3.org/Graphics/SVG/1.1/DTD/svg11.dtd"><svg t="1500026070509" class="icon" style="" viewBox="0 0 1024 1024" version="1.1" xmlns="http://www.w3.org/2000/svg" p-id="5269" xmlns:xlink="http://www.w3.org/1999/xlink" width="200" height="200"><defs><style type="text/css"></style></defs><path d="M550.966477 950.44782c-241.732553 0-438.382329-196.648752-438.382329-438.387445 0-241.732553 196.648752-438.382329 438.382329-438.382329 241.738693 0 438.388469 196.648752 438.388469 438.382329C989.354945 753.799068 792.70517 950.44782 550.966477 950.44782L550.966477 950.44782zM550.966477 136.303362c-207.198016 0-375.757013 168.558997-375.757013 375.757013 0 207.204156 168.558997 375.763153 375.757013 375.763153 207.204156 0 375.763153-168.558997 375.763153-375.763153C926.729629 304.862359 758.170632 136.303362 550.966477 136.303362L550.966477 136.303362zM550.966477 136.303362" p-id="5270"></path></svg>